<?xml version="1.0" encoding="UTF-8" standalone="no"?>
<!DOCTYPE svg PUBLIC "-//W3C//DTD SVG 1.1//EN" "http://www.w3.org/Graphics/SVG/1.1/DTD/svg11.dtd">
<svg width="100%" height="100%" viewBox="0 0 755 235" version="1.1" xmlns="http://www.w3.org/2000/svg" xmlns:xlink="http://www.w3.org/1999/xlink" xml:space="preserve" xmlns:serif="http://www.serif.com/" style="fill-rule:evenodd;clip-rule:evenodd;stroke-linejoin:round;stroke-miterlimit:2;">
    <g transform="matrix(1,0,0,1,-185.375,-631.89)">
        <g>
            <g transform="matrix(9.895,0,0,9.895,-1536.23,-7727.66)">
                <path d="M180.828,864.002C179.5,864.002 178.216,863.822 176.976,863.462C175.736,863.102 174.74,862.634 173.988,862.058L175.308,859.13C176.028,859.658 176.884,860.082 177.876,860.402C178.868,860.722 179.86,860.882 180.852,860.882C181.956,860.882 182.772,860.718 183.3,860.39C183.828,860.062 184.092,859.626 184.092,859.082C184.092,858.682 183.936,858.35 183.624,858.086C183.312,857.822 182.912,857.61 182.424,857.45C181.936,857.29 181.276,857.114 180.444,856.922C179.164,856.618 178.116,856.314 177.3,856.01C176.484,855.706 175.784,855.218 175.2,854.546C174.616,853.874 174.324,852.978 174.324,851.858C174.324,850.882 174.588,849.998 175.116,849.206C175.644,848.414 176.44,847.786 177.504,847.322C178.568,846.858 179.868,846.626 181.404,846.626C182.476,846.626 183.524,846.754 184.548,847.01C185.572,847.266 186.468,847.634 187.236,848.114L186.036,851.066C184.484,850.186 182.932,849.746 181.38,849.746C180.292,849.746 179.488,849.922 178.968,850.274C178.448,850.626 178.188,851.09 178.188,851.666C178.188,852.242 178.488,852.67 179.088,852.95C179.688,853.23 180.604,853.506 181.836,853.778C183.116,854.082 184.164,854.386 184.98,854.69C185.796,854.994 186.496,855.474 187.08,856.13C187.664,856.786 187.956,857.674 187.956,858.794C187.956,859.754 187.688,860.63 187.152,861.422C186.616,862.214 185.812,862.842 184.74,863.306C183.668,863.77 182.364,864.002 180.828,864.002Z" style="fill-rule:nonzero;"/>
            </g>
            <g transform="matrix(9.895,0,0,9.895,-1546.83,-7727.66)">
                <path d="M198.204,850.61C199.804,850.61 201.096,851.09 202.08,852.05C203.064,853.01 203.556,854.434 203.556,856.322L203.556,863.714L199.812,863.714L199.812,856.898C199.812,855.874 199.588,855.11 199.14,854.606C198.692,854.102 198.044,853.85 197.196,853.85C196.252,853.85 195.5,854.142 194.94,854.726C194.38,855.31 194.1,856.178 194.1,857.33L194.1,863.714L190.356,863.714L190.356,845.906L194.1,845.906L194.1,852.146C194.596,851.65 195.196,851.27 195.9,851.006C196.604,850.742 197.372,850.61 198.204,850.61Z" style="fill-rule:nonzero;"/>
            </g>
            <g transform="matrix(9.895,0,0,9.895,-1562.65,-7727.66)">
                <path d="M206.94,850.802L210.684,850.802L210.684,863.714L206.94,863.714L206.94,850.802ZM208.812,849.002C208.124,849.002 207.564,848.802 207.132,848.402C206.7,848.002 206.484,847.506 206.484,846.914C206.484,846.322 206.7,845.826 207.132,845.426C207.564,845.026 208.124,844.826 208.812,844.826C209.5,844.826 210.06,845.018 210.492,845.402C210.924,845.786 211.14,846.266 211.14,846.842C211.14,847.466 210.924,847.982 210.492,848.39C210.06,848.798 209.5,849.002 208.812,849.002Z" style="fill-rule:nonzero;"/>
            </g>
            <g transform="matrix(9.895,0,0,9.895,-1579.43,-7727.66)">
                <path d="M217.74,852.506C218.188,851.882 218.792,851.41 219.552,851.09C220.312,850.77 221.188,850.61 222.18,850.61L222.18,854.066C221.764,854.034 221.484,854.018 221.34,854.018C220.268,854.018 219.428,854.318 218.82,854.918C218.212,855.518 217.908,856.418 217.908,857.618L217.908,863.714L214.164,863.714L214.164,850.802L217.74,850.802L217.74,852.506Z" style="fill-rule:nonzero;"/>
            </g>
            <g transform="matrix(9.895,0,0,9.895,-1577.67,-7727.66)">
                <path d="M233.196,863.09C232.828,863.362 232.376,863.566 231.84,863.702C231.304,863.838 230.74,863.906 230.148,863.906C228.612,863.906 227.424,863.514 226.584,862.73C225.744,861.946 225.324,860.794 225.324,859.274L225.324,853.97L223.332,853.97L223.332,851.09L225.324,851.09L225.324,847.946L229.068,847.946L229.068,851.09L232.284,851.09L232.284,853.97L229.068,853.97L229.068,859.226C229.068,859.77 229.208,860.19 229.488,860.486C229.768,860.782 230.164,860.93 230.676,860.93C231.268,860.93 231.772,860.77 232.188,860.45L233.196,863.09Z" style="fill-rule:nonzero;"/>
            </g>
            <g transform="matrix(9.895,0,0,9.895,-1585.42,-7727.66)">
                <rect x="235.308" y="845.906" width="3.744" height="17.808" style="fill-rule:nonzero;"/>
            </g>
            <g transform="matrix(9.895,0,0,9.895,-1587.23,-7727.66)">
                <path d="M255.348,850.802L249.516,864.506C248.924,865.994 248.192,867.042 247.32,867.65C246.448,868.258 245.396,868.562 244.164,868.562C243.492,868.562 242.828,868.458 242.172,868.25C241.516,868.042 240.98,867.754 240.564,867.386L241.932,864.722C242.22,864.978 242.552,865.178 242.928,865.322C243.304,865.466 243.676,865.538 244.044,865.538C244.556,865.538 244.972,865.414 245.292,865.166C245.612,864.918 245.9,864.506 246.156,863.93L246.204,863.81L240.612,850.802L244.476,850.802L248.1,859.562L251.748,850.802L255.348,850.802Z" style="fill-rule:nonzero;"/>
            </g>
        </g>
    </g>
</svg>
