<?xml version="1.0" encoding="UTF-8" standalone="no"?>
<!DOCTYPE svg PUBLIC "-//W3C//DTD SVG 1.1//EN" "http://www.w3.org/Graphics/SVG/1.1/DTD/svg11.dtd">
<svg width="100%" height="100%" viewBox="0 0 500 500" version="1.1" xmlns="http://www.w3.org/2000/svg" xmlns:xlink="http://www.w3.org/1999/xlink" xml:space="preserve" xmlns:serif="http://www.serif.com/" style="fill-rule:evenodd;clip-rule:evenodd;stroke-linejoin:round;stroke-miterlimit:2;">
    <rect x="-25.862" y="-7.958" width="547.745" height="514.735" style="fill:white;"/>
    <g transform="matrix(49.4914,0,0,49.4914,-18835,-20513.7)">
        <path d="M382.776,423.418L382.776,421.543C383.116,421.828 383.485,422.042 383.883,422.184C384.282,422.327 384.684,422.398 385.09,422.398C385.329,422.398 385.537,422.377 385.714,422.334C385.892,422.291 386.04,422.231 386.16,422.155C386.279,422.079 386.368,421.989 386.426,421.886C386.485,421.782 386.514,421.67 386.514,421.549C386.514,421.385 386.467,421.238 386.373,421.109C386.28,420.98 386.152,420.861 385.99,420.752C385.828,420.642 385.635,420.537 385.413,420.435C385.19,420.334 384.95,420.23 384.692,420.125C384.036,419.851 383.546,419.517 383.224,419.123C382.902,418.728 382.741,418.252 382.741,417.693C382.741,417.256 382.829,416.88 383.004,416.565C383.18,416.251 383.419,415.992 383.722,415.789C384.025,415.586 384.375,415.436 384.774,415.341C385.172,415.245 385.594,415.197 386.039,415.197C386.477,415.197 386.865,415.223 387.203,415.276C387.54,415.329 387.852,415.41 388.137,415.519L388.137,417.271C387.997,417.174 387.843,417.088 387.677,417.013C387.511,416.939 387.34,416.878 387.164,416.829C386.989,416.78 386.814,416.744 386.64,416.721C386.466,416.697 386.301,416.685 386.145,416.685C385.93,416.685 385.735,416.706 385.559,416.747C385.383,416.788 385.235,416.846 385.114,416.92C384.993,416.994 384.899,417.083 384.832,417.186C384.766,417.29 384.733,417.406 384.733,417.535C384.733,417.676 384.77,417.802 384.844,417.913C384.918,418.024 385.024,418.13 385.161,418.229C385.297,418.329 385.463,418.427 385.659,418.522C385.854,418.618 386.075,418.717 386.321,418.818C386.657,418.959 386.958,419.108 387.226,419.266C387.494,419.425 387.723,419.603 387.914,419.803C388.106,420.002 388.252,420.229 388.354,420.485C388.455,420.741 388.506,421.039 388.506,421.379C388.506,421.847 388.417,422.241 388.24,422.559C388.062,422.878 387.821,423.136 387.516,423.333C387.211,423.53 386.857,423.672 386.453,423.758C386.048,423.844 385.622,423.887 385.172,423.887C384.711,423.887 384.273,423.847 383.857,423.769C383.441,423.691 383.08,423.574 382.776,423.418Z" style="fill-rule:nonzero;"/>
    </g>
</svg>
